<?xml version="1.0" encoding="iso-8859-1"?>
<!-- Generator: Adobe Illustrator 19.0.0, SVG Export Plug-In . SVG Version: 6.00 Build 0)  -->
<svg version="1.1" id="Capa_1" xmlns="http://www.w3.org/2000/svg" xmlns:xlink="http://www.w3.org/1999/xlink" x="0px" y="0px"
	 viewBox="0 0 512.012 512.012" style="enable-background:new 0 0 512.012 512.012;" xml:space="preserve" width="50">
<path style="fill:#2196F3;" d="M506.934,228.298l-240-224c-6.144-5.728-15.68-5.728-21.856,0l-240,224
	c-4.8,4.48-6.368,11.456-3.968,17.568c2.432,6.144,8.32,10.144,14.912,10.144h48v240c0,8.832,7.168,16,16,16h352
	c8.832,0,16-7.168,16-16v-240h48c6.56,0,12.48-4,14.88-10.112C513.302,239.754,511.734,232.778,506.934,228.298z"/>
<path style="fill:#FAFAFA;" d="M256.022,160.01c-61.76,0-112,50.24-112,112c0,57.472,89.856,159.264,100.096,170.688
	c3.04,3.36,7.36,5.312,11.904,5.312c4.544,0,8.864-1.952,11.904-5.312c10.24-11.424,100.096-113.216,100.096-170.688
	C368.022,210.25,317.782,160.01,256.022,160.01z"/>
<circle style="fill:#2196F3;" cx="256.022" cy="272.01" r="48"/>
<g>
</g>
<g>
</g>
<g>
</g>
<g>
</g>
<g>
</g>
<g>
</g>
<g>
</g>
<g>
</g>
<g>
</g>
<g>
</g>
<g>
</g>
<g>
</g>
<g>
</g>
<g>
</g>
<g>
</g>
</svg>
